HIERARCHY
ROOT Hips
{
	OFFSET 0.000000 0.000000 0.000000
	CHANNELS 6 Xposition Yposition Zposition Zrotation Yrotation Xrotation 
	JOINT LHipJoint
	{
		OFFSET 0.000000 0.000000 0.000000
		CHANNELS 3 Zrotation Yrotation Xrotation
		JOINT LeftUpLeg
		{
			OFFSET 1.363060 -1.794630 0.839290
			CHANNELS 3 Zrotation Yrotation Xrotation
			JOINT LeftLeg
			{
				OFFSET 2.448110 -6.726130 0.000000
				CHANNELS 3 Zrotation Yrotation Xrotation
				JOINT LeftFoot
				{
					OFFSET 2.562200 -7.039590 0.000000
					CHANNELS 3 Zrotation Yrotation Xrotation
					JOINT LeftToeBase
					{
						OFFSET 0.157640 -0.433110 2.322550
						CHANNELS 3 Zrotation Yrotation Xrotation
						End Site
						{
							OFFSET 0.000000 0.000000 0.000000
						}
					}
				}
			}
		}
	}
	JOINT RHipJoint
	{
		OFFSET 0.000000 0.000000 0.000000
		CHANNELS 3 Zrotation Yrotation Xrotation
		JOINT RightUpLeg
		{
			OFFSET -1.305520 -1.794630 0.839290
			CHANNELS 3 Zrotation Yrotation Xrotation
			JOINT RightLeg
			{
				OFFSET -2.542530 -6.985550 0.000000
				CHANNELS 3 Zrotation Yrotation Xrotation
				JOINT RightFoot
				{
					OFFSET -2.568260 -7.056230 0.000000
					CHANNELS 3 Zrotation Yrotation Xrotation
					JOINT RightToeBase
					{
						OFFSET -0.164730 -0.452590 2.363150
						CHANNELS 3 Zrotation Yrotation Xrotation
						End Site
						{
							OFFSET 0.000000 0.000000 0.000000
						}
					}
				}
			}
		}
	}
	JOINT LowerBack
	{
		OFFSET 0.000000 0.000000 0.000000
		CHANNELS 3 Zrotation Yrotation Xrotation
		JOINT Spine
		{
			OFFSET 0.028270 2.035590 -0.193380
			CHANNELS 3 Zrotation Yrotation Xrotation
			JOINT Spine1
			{
				OFFSET 0.056720 2.048850 -0.042750
				CHANNELS 3 Zrotation Yrotation Xrotation
				JOINT Neck
				{
					OFFSET 0.000000 0.000000 0.000000
					CHANNELS 3 Zrotation Yrotation Xrotation
					JOINT Neck1
					{
						OFFSET -0.054170 1.746240 0.172020
						CHANNELS 3 Zrotation Yrotation Xrotation
						JOINT Head
						{
							OFFSET 0.104070 1.761360 -0.123970
							CHANNELS 3 Zrotation Yrotation Xrotation
							End Site
							{
								OFFSET 0.000000 0.000000 0.000000
							}
						}
					}
				}
				JOINT LeftShoulder
				{
					OFFSET 0.000000 0.000000 0.000000
					CHANNELS 3 Zrotation Yrotation Xrotation
					JOINT LeftArm
					{
						OFFSET 3.362410 1.200890 -0.311210
						CHANNELS 3 Zrotation Yrotation Xrotation
						JOINT LeftForeArm
						{
							OFFSET 4.983000 -0.000000 -0.000000
							CHANNELS 3 Zrotation Yrotation Xrotation
							JOINT LeftHand
							{
								OFFSET 3.483560 -0.000000 -0.000000
								CHANNELS 3 Zrotation Yrotation Xrotation
								JOINT LeftFingerBase
								{
									OFFSET 0.000000 0.000000 0.000000
									CHANNELS 3 Zrotation Yrotation Xrotation
									JOINT LeftHandIndex1
									{
										OFFSET 0.715260 -0.000000 -0.000000
										CHANNELS 3 Zrotation Yrotation Xrotation
										End Site
										{
											OFFSET 0.000000 0.000000 0.000000
										}
									}
								}
								JOINT LThumb
								{
									OFFSET 0.000000 0.000000 0.000000
									CHANNELS 3 Zrotation Yrotation Xrotation
									End Site
									{
										OFFSET 0.000000 0.000000 0.000000
									}
								}
							}
						}
					}
				}
				JOINT RightShoulder
				{
					OFFSET 0.000000 0.000000 0.000000
					CHANNELS 3 Zrotation Yrotation Xrotation
					JOINT RightArm
					{
						OFFSET -3.136600 1.374050 -0.404650
						CHANNELS 3 Zrotation Yrotation Xrotation
						JOINT RightForeArm
						{
							OFFSET -5.241900 -0.000000 -0.000000
							CHANNELS 3 Zrotation Yrotation Xrotation
							JOINT RightHand
							{
								OFFSET -3.444170 -0.000000 -0.000000
								CHANNELS 3 Zrotation Yrotation Xrotation
								JOINT RightFingerBase
								{
									OFFSET 0.000000 0.000000 0.000000
									CHANNELS 3 Zrotation Yrotation Xrotation
									JOINT RightHandIndex1
									{
										OFFSET -0.622530 -0.000000 -0.000000
										CHANNELS 3 Zrotation Yrotation Xrotation
										End Site
										{
											OFFSET 0.000000 0.000000 0.000000
										}
									}
								}
								JOINT RThumb
								{
									OFFSET 0.000000 0.000000 0.000000
									CHANNELS 3 Zrotation Yrotation Xrotation
									End Site
									{
										OFFSET 0.000000 0.000000 0.000000
									}
								}
							}
						}
					}
				}
			}
		}
	}
}
MOTION
Frames: 11
Frame Time: 0.008333
-1.633617 16.957351 -0.075103 12.599710 76.309545 32.799655 -8.266267 -0.604501 0.043290 -12.444747 -5.033934 -39.542262 -2.552620 0.413044 20.813250 0.159710 0.681629 1.136209 0.411500 -0.000000 -27.637900 11.953383 -1.645330 -2.605888 1.210559 -1.556008 -15.388012 0.614978 -3.704318 45.388111 1.073760 18.829582 8.464277 4.726900 -0.000000 -69.697200 -6.697083 2.203653 4.471581 -2.576153 2.539901 -2.196885 -7.239566 2.441293 0.429293 9.026726 7.972605 5.278475 -4.645852 -0.430066 2.929548 0.000000 0.000000 0.000000 -8.770690 3.218306 1.428305 -61.963812 -6.842617 13.334696 -3.696959 -19.726862 -0.002192 1.692343 2.133984 0.033282 -0.077796 -0.004761 0.000000 0.000000 0.000000 0.000000 0.000000 0.000000 0.000000 18.712058 8.076939 -1.552165 79.521921 24.240826 7.916196 2.543236 22.354421 0.005495 -0.038010 10.512379 -0.005628 0.026623 -0.145124 0.000000 0.000000 0.000000 0.000000 0.000000 0.000000 0.000000 
-1.528912 16.977306 -0.084567 11.168981 75.370373 31.314847 -8.276816 -0.605414 -0.153207 -12.467599 -4.577398 -39.106943 -2.519261 0.433239 21.248554 0.261235 1.236730 0.417565 0.460800 0.000000 -28.287200 12.016842 -1.549312 -2.586775 1.055249 -1.075384 -16.491660 0.346252 -3.836514 47.546851 0.930224 18.466421 10.445785 5.325100 -0.000001 -69.345600 -6.689057 2.200315 4.698251 -2.570591 2.537918 -2.153090 -7.224295 2.438005 0.400828 8.617525 8.294366 5.450852 -4.648365 -0.430731 2.965856 0.000000 0.000000 0.000000 -8.821718 2.831052 1.463859 -62.169654 -7.332125 13.272400 -3.724079 -18.375296 -0.002577 1.521790 2.364083 0.033269 -0.075861 -0.000560 0.000000 0.000000 0.000000 0.000000 0.000000 0.000000 0.000000 18.308878 8.279745 -1.537687 79.849794 23.947848 6.970816 2.566191 21.180745 0.005637 -0.215095 10.323999 -0.022036 0.030340 -0.140013 0.000000 0.000000 0.000000 0.000000 0.000000 0.000000 0.000000 
-1.424889 16.996947 -0.096290 9.804497 74.478471 29.869292 -8.304013 -0.604459 -0.350104 -12.465218 -4.070760 -38.634051 -2.485937 0.455990 21.614993 0.350704 1.720507 -0.171783 0.493100 -0.000000 -28.817599 12.061363 -1.449977 -2.575510 0.987388 -0.636809 -17.526076 0.095759 -3.946470 49.597219 0.776198 17.967715 12.374774 5.837300 0.000000 -68.470100 -6.613827 2.180978 4.935136 -2.552564 2.517823 -2.102191 -7.215506 2.417495 0.385008 8.214191 8.574948 5.620618 -4.659247 -0.431578 3.001110 0.000000 0.000000 0.000000 -8.846421 2.442641 1.496225 -62.396413 -7.847156 13.254374 -3.744140 -17.068659 -0.002924 1.378958 2.590428 0.033059 -0.074006 0.003987 0.000000 0.000000 0.000000 0.000000 0.000000 0.000000 0.000000 17.943263 8.424256 -1.523036 80.089015 23.656957 6.228572 2.596817 20.131619 0.005907 -0.305744 10.071784 -0.029945 0.033802 -0.134234 0.000000 0.000000 0.000000 0.000000 0.000000 0.000000 0.000000 
-1.321064 17.016081 -0.109340 8.549494 73.642365 28.509489 -8.343459 -0.598639 -0.543428 -12.457185 -3.518584 -38.140606 -2.454896 0.481508 21.929391 0.427426 2.135268 -0.641950 0.513900 -0.000000 -29.213200 12.093394 -1.348690 -2.573537 0.984742 -0.277553 -18.499239 -0.134295 -4.037196 51.534199 0.613668 17.312538 14.212655 6.229700 -0.000000 -67.168600 -6.491940 2.142555 5.175458 -2.526613 2.477495 -2.045864 -7.215041 2.377589 0.381597 7.834301 8.805480 5.786913 -4.679722 -0.432667 3.035078 0.000000 0.000000 0.000000 -8.838037 2.047824 1.525436 -62.629794 -8.373833 13.283230 -3.757297 -15.837490 -0.003237 1.275034 2.811876 0.033251 -0.072243 0.008735 0.000000 0.000000 0.000000 0.000000 0.000000 0.000000 0.000000 17.637981 8.499994 -1.508147 80.236490 23.361881 5.707549 2.635133 19.220928 0.006277 -0.284653 9.754504 -0.027353 0.036707 -0.127714 0.000000 0.000000 0.000000 0.000000 0.000000 0.000000 0.000000 
-1.217123 17.034712 -0.122788 7.430783 72.868190 27.266886 -8.391075 -0.585929 -0.729639 -12.459590 -2.929228 -37.641968 -2.428114 0.509429 22.207700 0.491723 2.484519 -1.014570 0.526500 -0.000000 -29.479000 12.117700 -1.246269 -2.581921 1.026902 -0.024384 -19.421370 -0.343259 -4.111975 53.354852 0.444010 16.474250 15.922497 6.469600 0.000000 -65.584400 -6.342556 2.082905 5.413159 -2.496798 2.415603 -1.985155 -7.224073 2.316983 0.392328 7.491653 8.980805 5.946368 -4.709849 -0.433963 3.066867 0.000000 0.000000 0.000000 -8.796428 1.659165 1.551203 -62.853748 -8.922829 13.384782 -3.764705 -14.698055 -0.003524 1.218743 3.024330 0.034145 -0.070647 0.013589 0.000000 0.000000 0.000000 0.000000 0.000000 0.000000 0.000000 17.406937 8.501617 -1.494664 80.294156 23.058287 5.404780 2.680430 18.458950 0.006709 -0.134477 9.376988 -0.013962 0.038796 -0.120422 0.000000 0.000000 0.000000 0.000000 0.000000 0.000000 0.000000 
-1.112998 17.052946 -0.135837 6.465703 72.160088 26.163184 -8.443021 -0.565222 -0.905460 -12.484100 -2.314817 -37.149739 -2.407108 0.538803 22.462697 0.544738 2.773736 -1.317038 0.532900 0.000000 -29.637299 12.137861 -1.143182 -2.600925 1.095574 0.106832 -20.303483 -0.531665 -4.174144 55.057852 0.267831 15.425833 17.470965 6.527800 -0.000000 -63.906900 -6.182683 2.002291 5.642281 -2.466502 2.333027 -1.922564 -7.242081 2.236401 0.413206 7.195898 9.092825 6.101288 -4.749443 -0.435523 3.097372 0.000000 0.000000 0.000000 -8.718056 1.246961 1.573884 -63.056778 -9.455494 13.533421 -3.766262 -13.687466 -0.003791 1.216246 3.223893 0.036244 -0.069157 0.018350 0.000000 0.000000 0.000000 0.000000 0.000000 0.000000 0.000000 17.258925 8.420474 -1.480206 80.264004 22.746455 5.322790 2.731338 17.841590 0.007145 0.144165 8.955635 0.008627 0.039947 -0.112460 -0.000000 0.000000 0.000000 0.000000 0.000000 0.000000 0.000000 
-1.008779 17.071024 -0.147891 5.657222 71.517519 25.207294 -8.495935 -0.536380 -1.068897 -12.536908 -1.689457 -36.672340 -2.392767 0.568498 22.702966 0.588197 3.010330 -1.577802 0.533900 -0.000000 -29.721600 12.155840 -1.038753 -2.630948 1.176126 0.112462 -21.157050 -0.700843 -4.226659 56.643479 0.085370 14.146108 18.825370 6.382100 0.000000 -62.321700 -6.024697 1.900683 5.860386 -2.437942 2.230129 -1.857220 -7.269036 2.136439 0.450777 6.952323 9.155955 6.242837 -4.795344 -0.437066 3.124123 0.000000 0.000000 0.000000 -8.620362 0.881204 1.593257 -63.216587 -10.053647 13.821762 -3.766165 -12.784766 -0.004070 1.262636 3.408970 0.039544 -0.068080 0.023124 0.000000 0.000000 0.000000 0.000000 0.000000 0.000000 0.000000 17.185503 8.275941 -1.471641 80.155636 22.413070 5.390499 2.785355 17.390903 0.007526 0.556562 8.498280 0.039216 0.039942 -0.103894 -0.000000 0.000000 0.000000 0.000000 0.000000 0.000000 0.000000 
-0.904707 17.089152 -0.158532 4.998809 70.937914 24.396590 -8.547267 -0.499977 -1.218245 -12.619664 -1.067612 -36.212999 -2.385202 0.597212 22.933668 0.623925 3.202247 -1.821406 0.529701 -0.000000 -29.771600 12.172610 -0.933101 -2.670559 1.258498 0.001009 -21.989765 -0.852235 -4.272253 58.111543 -0.103280 12.625062 19.954135 6.021000 -0.000000 -61.017300 -5.877311 1.781904 6.063649 -2.412499 2.110935 -1.792290 -7.302521 2.020834 0.496620 6.760897 9.162229 6.376538 -4.846618 -0.438686 3.149119 0.000000 0.000000 0.000000 -8.500643 0.504250 1.610164 -63.328842 -10.648154 14.183228 -3.763446 -12.032789 -0.004352 1.358364 3.571709 0.044347 -0.067266 0.027659 0.000000 0.000000 0.000000 0.000000 0.000000 0.000000 0.000000 17.182964 8.060915 -1.463593 79.972255 22.064811 5.608794 2.840112 17.087741 0.007802 1.070564 8.037105 0.073703 0.038931 -0.095046 -0.000000 0.000000 0.000000 0.000000 0.000000 0.000000 0.000000 
-0.801139 17.107608 -0.167578 4.475064 70.414738 23.719128 -8.595193 -0.457226 -1.353063 -12.729594 -0.462680 -35.770843 -2.383787 0.623773 23.155096 0.653837 3.359013 -2.064709 0.520900 0.000000 -29.825900 12.188149 -0.825937 -2.718169 1.336572 -0.209663 -22.808213 -0.987326 -4.313377 59.463126 -0.297327 10.871030 20.822897 5.447900 -0.000000 -60.089800 -5.744286 1.649840 6.251027 -2.390416 1.979354 -1.729071 -7.340329 1.893382 0.547381 6.617853 9.116924 6.502244 -4.900778 -0.440305 3.172630 0.000000 0.000000 0.000000 -8.366329 0.110609 1.625413 -63.385091 -11.232384 14.603137 -3.759387 -11.442351 -0.004647 1.496893 3.707243 0.050451 -0.066752 0.031885 0.000000 0.000000 0.000000 0.000000 0.000000 0.000000 0.000000 17.237247 7.785058 -1.455408 79.720719 21.700058 5.941770 2.892615 16.926961 0.007940 1.653013 7.599783 0.108889 0.037058 -0.086248 -0.000000 0.000000 0.000000 0.000000 0.000000 0.000000 0.000000 
-0.698442 17.126599 -0.175082 4.063233 69.937916 23.155200 -8.638710 -0.409750 -1.474097 -12.860478 0.115151 -35.341886 -2.387307 0.647306 23.364459 0.679679 3.490358 -2.315908 0.508100 0.000000 -29.917901 12.201819 -0.717340 -2.771712 1.408406 -0.494269 -23.615820 -1.107501 -4.352177 60.699402 -0.494952 8.913931 21.397402 4.684700 0.000000 -59.545900 -5.625353 1.509088 6.423218 -2.371103 1.839890 -1.668440 -7.380171 1.758467 0.599837 6.515814 9.027643 6.619331 -4.955204 -0.441832 3.194751 0.000000 0.000000 0.000000 -8.226789 -0.300553 1.639868 -63.379049 -11.805303 15.067419 -3.755129 -11.016749 -0.004952 1.671083 3.808019 0.057457 -0.066576 0.035753 0.000000 0.000000 0.000000 0.000000 0.000000 0.000000 0.000000 17.330445 7.461310 -1.446648 79.408540 21.317845 6.351221 2.939887 16.901802 0.007933 2.264029 7.214048 0.142374 0.034544 -0.077867 -0.000000 0.000000 0.000000 0.000000 0.000000 0.000000 0.000000 
-0.596976 17.146256 -0.181254 3.736367 69.495419 22.680108 -8.677678 -0.359409 -1.583183 -13.003632 0.660059 -34.920658 -2.394170 0.667357 23.556195 0.702811 3.605153 -2.573245 0.492500 -0.000001 -30.072000 12.212585 -0.607704 -2.828905 1.474939 -0.823375 -24.413591 -1.214027 -4.390416 61.821308 -0.692944 6.807203 21.646916 3.773301 -0.000000 -59.298800 -5.516656 1.364106 6.582590 -2.353297 1.696822 -1.610288 -7.420223 1.620325 0.653148 6.445381 8.903803 6.724418 -5.007259 -0.443138 3.214712 0.000000 0.000000 0.000000 -8.093892 -0.711403 1.654088 -63.305128 -12.386678 15.581472 -3.752215 -10.746473 -0.005261 1.871641 3.866139 0.065063 -0.066830 0.039264 0.000000 0.000000 0.000000 0.000000 0.000000 0.000000 0.000000 17.442894 7.105285 -1.438417 79.044278 20.917899 6.796352 2.979208 17.004641 0.007799 2.860973 6.905052 0.172759 0.031659 -0.070254 -0.000000 0.000000 0.000000 0.000000 0.000000 0.000000 0.000000 
